<?xml version="1.0" encoding="utf-8"?>
<!-- Generator: Adobe Illustrator 19.0.0, SVG Export Plug-In . SVG Version: 6.00 Build 0)  -->
<svg version="1.1" id="Layer_1" xmlns="http://www.w3.org/2000/svg" xmlns:xlink="http://www.w3.org/1999/xlink" x="0px" y="0px"
	 viewBox="0 0 500 500" style="enable-background:new 0 0 500 500;" xml:space="preserve">
<style type="text/css">
	.st0{fill:#22A699;}
	.st1{fill:#FFFFFF;}
</style>
<g id="XMLID_1_">
	<rect id="XMLID_2_" x="67.5" y="67.5" class="st0" width="365" height="365"/>
	<path id="XMLID_3_" class="st1" d="M285.5,305.7H316l-48.6-126.2h-33.6l-48.6,126.2h30.5l8-21.4h45.9l-8.3-23.7H231l19.7-54.3
		L285.5,305.7z M386,212.2c-1.1-3.8-5.1-6.1-9-5.1c-3.8,1.1-6.1,5.1-5.1,9c3,11,4.6,22.4,4.6,33.8c0,69.7-56.7,126.5-126.5,126.5
		S123.5,319.7,123.5,250S180.3,123.5,250,123.5c29.5,0,58.2,10.6,80.7,29.2c-0.9,2.1-1.4,4.4-1.4,6.8c0,9.7,7.8,17.7,17.7,17.7
		c9.7,0,17.7-7.8,17.7-17.7s-7.8-17.7-17.7-17.7c-1.9,0-3.7,0.3-5.4,0.9c-25.4-21.7-57.9-33.9-91.5-33.9
		c-77.8,0-141.2,63.3-141.2,141.2S172.2,391.2,250,391.2S391.2,327.8,391.2,250C391.2,237.2,389.4,224.5,386,212.2z"/>
</g>
</svg>
